# xmcd
# 
# Track frame offsets:
#     150
#     12930
#     30219
#     41745
#     52615
#     67302
#     94077
#     112090
#     123935
#     142657
#     155690
#     167587
#     177912
#     193350
#     209134
#     220302
#     233975
#     251727
#     271895
#     292547
#     311805
#     327010
# 
# Disc length: 4517
# 
# Revision: 2
# Processed by: cddbd v1.5.2PL0 Copyright (c) Steve Scherf et al.
# Submitted via: fre:ac v1.0.31
# 
DISCID=3f11a316
DTITLE=Joe Dassin - Souvenirs
DYEAR=1993
DGENRE=Ballad
TTITLE0=À toi
TTITLE1=Il était une fois nous deux
TTITLE2=Ça m'avance à quoi
TTITLE3=L'Amérique
TTITLE4=Si tu t'appelles mélancolie
TTITLE5=Le jardin du Luxembourg
TTITLE6=Salut les amoureux
TTITLE7=Siffler sur la colline
TTITLE8=Marie-Jeanne
TTITLE9=Gauntanamera
TTITLE10=Les Champs-Élysées
TTITLE11=Le moustique
TTITLE12=Et si tu n'existais pas
TTITLE13=Le dernier slow
TTITLE14=Le chemin de papa
TTITLE15=Ça va pas changer le monde
TTITLE16=Le café des 3 colombes
TTITLE17=L'été indien
TTITLE18=Les plus belles années de ma vie
TTITLE19=La vie se chante, la vie se pleure
TTITLE20=Le petit pain au chocolat
TTITLE21=Les Dalton
EXTD=
EXTT0=
EXTT1=
EXTT2=
EXTT3=
EXTT4=
EXTT5=
EXTT6=
EXTT7=
EXTT8=
EXTT9=
EXTT10=
EXTT11=
EXTT12=
EXTT13=
EXTT14=
EXTT15=
EXTT16=
EXTT17=
EXTT18=
EXTT19=
EXTT20=
EXTT21=
PLAYORDER=
